<svg xmlns="http://www.w3.org/2000/svg" viewBox="0 0 60 25" role="img" aria-label="Stripe">
  <path d="M5.45 9.17c0-.74.61-1.03 1.6-1.03 1.44 0 2.6.44 3.54 1.06V6.07C9.65 5.44 8.29 5 6.53 5 3.6 5 1.6 6.52 1.6 9.38c0 4.44 5.97 3.72 5.97 5.64 0 .88-.73 1.15-1.75 1.15-1.5 0-2.94-.62-4.1-1.34v3.2C2.83 18.63 4.2 19 5.82 19c2.97 0 5.04-1.47 5.04-4.39 0-4.78-5.41-3.94-5.41-5.44zm11.35-4l-3.24.67V9.1h-1.8V12h1.8v4.56c0 2.12 1.08 3.44 3.2 3.44.76 0 1.67-.18 2.2-.44v-2.88c-.43.16-.86.24-1.27.24-.9 0-1.14-.48-1.14-1.26V12h2.41V9.1h-2.41V5.17zm7.43 2.51a1.52 1.52 0 1 0 0-3.06 1.52 1.52 0 0 0 0 3.06zM21.55 9.1v9.74h3.24V9.1h-3.24zm9.5-.27c-1.27 0-2.08.6-2.5 1l-.14-.73h-2.9v12.56l3.24-.69V18.5c.44.3 1.1.5 1.89.5 2.86 0 5.03-2.12 5.03-5.5 0-3.14-1.85-5.17-4.62-5.17zm-.82 7.97c-.53 0-.96-.14-1.23-.37V12.2c.27-.23.73-.39 1.23-.39 1.24 0 2.04.99 2.04 2.44 0 1.5-.76 2.55-2.04 2.55zm10.4-7.97c-1.22 0-2.38.44-3.08 1.18l.14-1h-2.9V19h3.24v-5.54c.43-.52 1.1-.84 1.97-.84.2 0 .44.02.66.08V9.16a4.1 4.1 0 0 0-.04 0c-.33 0-.66.02-.99.06v-.38c0-.01-.01-.01 0 0zm7.14-.27c-2.92 0-5.11 2.03-5.11 5.3 0 3.47 2.19 5.37 5.2 5.37 1.5 0 2.57-.34 3.35-.82v-2.8c-.8.48-1.72.7-2.96.7-1.56 0-2.78-.62-2.96-2.16h7.35c.02-.27.04-.68.04-.96 0-3.12-1.83-5.43-4.91-5.43zm-2.4 4.3c.14-1.36 1.04-1.98 2.38-1.98 1.24 0 2.13.66 2.13 1.98h-4.51z" fill="#635BFF"/>
</svg>
